<svg id="Layer_2" data-name="Layer 2" xmlns="http://www.w3.org/2000/svg" xmlns:xlink="http://www.w3.org/1999/xlink" viewBox="0 0 400 300" data-imageid="cto-isometric" imageName="CTO" class="illustrations_image" style="width: 200px;"><defs><linearGradient id="linear-gradient" x1="277.32" y1="154.85" x2="289.53" y2="142.07" gradientUnits="userSpaceOnUse"><stop offset="0" stop-color="#ffd555" stop-opacity="0.03"/><stop offset="1" stop-color="#942500"/></linearGradient><linearGradient id="linear-gradient-2" x1="243.25" y1="183.53" x2="228.15" y2="169.27" gradientUnits="userSpaceOnUse"><stop offset="0" stop-color="#fff" stop-opacity="0"/><stop offset="0.99" stop-color="#d46400"/></linearGradient></defs><title>PP_</title><path d="M196.71,288.85,38.79,195.52c-5-2.82-9.34-7.46-4.44-10.5L192.84,93.69c2.38-1.47,6-2.44,8.41-1L367,188.86c5,2.92,5.93,11.07.9,14L217.52,288.7A21,21,0,0,1,196.71,288.85Z" fill="#96cf40"/><path d="M160.16,156.73v29.39c0,3.86,6,3.87,6,0V156.73C166.16,152.87,160.16,152.86,160.16,156.73Z" fill="#173743"/><path d="M161.73,161.72s9.38,11.7,18.76,14.78,35.19-17.79,35.19-17.79l-35.91-23.08" fill="#60433d"/><path d="M186,93.38s-35.6,14.44-36.1,23,7.17,43.19,11.86,45.32,34.93-14.63,34.93-14.63" fill="#60433d"/><path d="M188.15,211.22l4.14-1.9s.4-3.59-1-4.35S188.15,211.22,188.15,211.22Z" fill="#196132"/><path d="M198.34,201.22s.37,8.84,1,9.76,8.35,5.21,9,6.77-8.76-.32-11.83-1.17-5.91-2.45-6-3.61,1.3-7.06.16-7-2.43,5.2-2.43,5.2l-2.68-1.67L191.95,189" fill="#196132"/><path d="M207,202.85l4.14-1.9s.4-3.59-1-4.35S207,202.85,207,202.85Z" fill="#196132"/><path d="M217.14,192.85s.37,8.84,1,9.76,8.35,5.21,9,6.77-8.76-.32-11.83-1.17-5.91-2.45-6-3.61,1.3-7.06.16-7-2.43,5.2-2.43,5.2l-2.68-1.67,6.47-20.54" fill="#196132"/><path d="M188.19,125.92c-1.47,1.35-5.26,20.5-3.23,29.79s24.38,13.64,24.38,13.64l-5.79,23.41s8.45,6.69,16.71,4.21c3-.9,10.49-34.52,8-39.29s-32.17-21.72-32.17-21.72" fill="#fff0d7"/><path d="M170.33,132.54c-1.47,1.35-5.84,12.07-.57,25.47,3.48,8.84,23.36,15.47,23.36,15.47l-7.43,25.9s8.79,7.62,16.71,4.21,10.83-35.38,8.33-40.15-28.17-21.92-28.17-21.92" fill="#fff0d7"/><path d="M178,106.84s-15,5.83-11.3,26.93C169.32,148.64,184,150.6,184,150.6s9.75-5.83,8.71-7.89l-12.9-7.09,15-7.15,10.43,11.44,7.76-5.77s-10.63-17.54-15.26-24.79S178,106.84,178,106.84Z" fill="#ff9a22"/><line x1="220.02" y1="132.37" x2="218.7" y2="131.03" fill="#fff7f0"/><polyline points="193.85 140.85 191.45 155.93 196.07 158.59 200.05 144.86" fill="#ffe8bc"/><path d="M199.17,145.07a1.19,1.19,0,0,0-1.42-1.48,14.49,14.49,0,0,1-5.31.77,1.1,1.1,0,0,0-.56.12l-.05,0a32.21,32.21,0,0,1-5.71,4.37l.6.3a35.42,35.42,0,0,0,2.67,4.6,2.57,2.57,0,0,0,2.06,1.09,6.5,6.5,0,0,0,.84.57,2.44,2.44,0,0,0,2.73-.18,1.3,1.3,0,0,0,.94.19,1.24,1.24,0,0,0,1.34-.1,2.39,2.39,0,0,0,1-3.18,2.48,2.48,0,0,0,.16-3.15,7.52,7.52,0,0,0-1.76-1.86A3.07,3.07,0,0,0,199.17,145.07Z" fill="#fdba45"/><path d="M195.32,123.15s.06,13.35-.76,14.79-15.06,7.12-15.06,7.12L171,133.87Z" fill="#ff9a22"/><path d="M188.66,100.15s2.36,5.47,1.36,7.39-6.2.47-6.2.47" fill="#1b6333"/><path d="M189.16,97.39s-.09,11-4.64,12.09-6.81-4.55-6.81-4.55-.75-7.44.75-9S186.85,94.23,189.16,97.39Z" fill="#fdba45"/><path d="M190.93,96.21s-3.14,4.24-5,5.29-3.84.38-4.5,1.86,1.39,10.36-.71,12-6-3.27-7.86-1-1,6.63-3.78,7.51-6-3.5-3.26-6.88,3-5.06,1.53-6.23c-2.24-1.74.25-7.91,2.94-9s3.54-7.13,8.35-8.51S190,92.78,190.93,96.21Z" fill="#1b6333"/><path d="M194.35,118.9q-.19,9.24-.78,18.46c0,.7,1,.72,1.09,0q.58-9.22.78-18.46A.54.54,0,0,0,194.35,118.9Z" fill="#f26250"/><path d="M192.48,142.34a24.79,24.79,0,0,1-13.58-17.58c-.14-.69-1.19-.42-1.06.27a25.8,25.8,0,0,0,14.07,18.24C192.53,143.57,193.11,142.64,192.48,142.34Z" fill="#f26250"/><path d="M220,146a8.62,8.62,0,0,0-4.34-5.09L210,135.62l-.21.08c-1.52,1.08-3,2.26-4.4,3.45l4.61,5.12s1.07,4.55,2.9,5,0-4.17,0-4.17l2.76,4.16S220.95,149.46,220,146Z" fill="#fdba45"/><path d="M193,272l-49.67-27.94,6.16-50.82s.22-7.26,10.12-12.76c8.61-4.78,89.25-50.66,110.14-62.54a9.12,9.12,0,0,1,9.63.37c11,7.43,37.59,25.59,39.51,28.73,2.42,4,7,29.46,7,29.46l2.19,17.07-15.4-10L195,248.89Z" fill="#b2683f"/><polygon points="312.71 183.55 325.92 176.49 329.34 194.36 312.71 183.55" fill="#60433d"/><path d="M318.42,140.58,276,116.06a3.82,3.82,0,0,0-3.81,0l-121,69.32a2.62,2.62,0,0,0,0,4.52l41.44,24.89a4.58,4.58,0,0,0,4.64,0l121.19-69.71A2.62,2.62,0,0,0,318.42,140.58Z" fill="#68e1fd" class="target-color"/><path d="M68.64,67.51l90.58-54.07a3.27,3.27,0,0,1,5,2.81V93L65.59,148.74V72.89A6.27,6.27,0,0,1,68.64,67.51Z" fill="#ffe1b6"/><line x1="156.58" y1="23.68" x2="156.58" y2="92.27" fill="none" stroke="#8e664c" stroke-miterlimit="10"/><line x1="139.54" y1="34.33" x2="139.54" y2="102.92" fill="none" stroke="#8e664c" stroke-miterlimit="10"/><line x1="112.92" y1="50.16" x2="112.92" y2="118.75" fill="none" stroke="#8e664c" stroke-miterlimit="10"/><line x1="93.67" y1="60.61" x2="93.67" y2="129.2" fill="none" stroke="#8e664c" stroke-miterlimit="10"/><line x1="76.45" y1="71.76" x2="76.45" y2="140.35" fill="none" stroke="#8e664c" stroke-miterlimit="10"/><path d="M99.32,109.77a4.72,4.72,0,0,1-2.31-.59c-3.11-1.72-4.55-6.8-6.09-12.19s-3.19-11.22-6.6-12.68c-1.58-.68-3.45-.42-5.74.79l-.49-.93c2.58-1.36,4.76-1.63,6.64-.83,3.87,1.66,5.57,7.6,7.2,13.36,1.41,4.94,2.86,10.05,5.58,11.56a4.05,4.05,0,0,0,3.23.24c5.74-1.67,5.46-12.18,5.34-16.66,0-.58,0-1.08,0-1.47,0-1.49-.14-3.29-.3-5.2-.63-7.82-1.49-18.53,6.94-21.81a4.55,4.55,0,0,1,3.92.09c3.48,1.83,5.07,8.55,6.61,15.05,1.35,5.69,2.74,11.58,5.22,12.72a2.61,2.61,0,0,0,2.38-.22c4.86-2.53,5.17-8.23,5.47-13.75s.6-11,5.45-13.15a5.28,5.28,0,0,1,4.75.11c6,3.11,9,17.12,9.08,17.72l-1,.21c0-.14-2.95-14.11-8.53-17a4.23,4.23,0,0,0-3.85-.08c-4.25,1.88-4.53,6.91-4.82,12.24-.32,5.81-.65,11.82-6,14.63a3.63,3.63,0,0,1-3.3.25c-2.94-1.35-4.33-7.22-5.8-13.43s-3-12.76-6.07-14.37a3.52,3.52,0,0,0-3,0c-7.7,3-6.91,12.83-6.27,20.74.16,1.93.3,3.75.3,5.29,0,.38,0,.87,0,1.44.14,5.13.43,15.8-6.09,17.7A6.18,6.18,0,0,1,99.32,109.77Z" fill="#f15a24"/><ellipse cx="155.05" cy="82.18" rx="1.88" ry="2.28" fill="#f15a24"/><ellipse cx="78.33" cy="85.14" rx="1.88" ry="2.28" fill="#f15a24"/><ellipse cx="121.35" cy="71.76" rx="1.88" ry="2.28" fill="#f15a24"/><ellipse cx="106.52" cy="87.42" rx="1.88" ry="2.28" fill="#f15a24"/><path d="M63.31,145v7.48L167.23,93.6V86.36s-3.06-.86-3.06-.6V86Z" fill="#68e1fd" class="target-color"/><path d="M64.57,140.92c-1.53.95-3.07,1.87-4.6,2.81v7.35l3.34,1.35,2.7-7-.43-5.05Z" fill="#68e1fd" class="target-color"/><path d="M284,157.29q3.31-2,6.57-4.15c3.71-2.41,7.84-4.71,11.29-7.59l-17.37-4.68L266,150.32c3.6,1.88,8.48,4.48,15.6,8.39C282.39,158.24,283.2,157.78,284,157.29Z" opacity="0.32" fill="url(#linear-gradient)"/><path d="M292.52,120.3c-6.83,0-12.36,1.81-12.36,4h24.72C304.88,122.11,299.34,120.3,292.52,120.3Z" fill="#0a1d23"/><path d="M280.2,124.65l0-.31A1.37,1.37,0,0,0,280.2,124.65Z" fill="#06489e"/><path d="M304.88,124.34l-.05.35A1.38,1.38,0,0,0,304.88,124.34Z" fill="#06489e"/><path d="M292.52,128.38c6.46,0,11.76-1.62,12.31-3.69l.05-.35H280.16l0,.31C280.68,126.74,286,128.38,292.52,128.38Z" fill="#0a1d23"/><rect x="294.46" y="103.48" width="2.78" height="28.69" fill="#25b000"/><ellipse cx="295.85" cy="103.48" rx="1.39" ry="0.59" fill="#25b000"/><rect x="297.8" y="108.38" width="2.78" height="28.69" transform="translate(30.6 -57.38) rotate(11.54)" fill="#ff8f02"/><ellipse cx="302.06" cy="108.67" rx="0.59" ry="1.39" transform="translate(135.15 382.88) rotate(-78.46)" fill="#ff8f02"/><path d="M289.16,125l-2.54,1.45a.22.22,0,0,1-.22-.39l2.6-1.49.08,0-.51-2.75L286,123.23a.22.22,0,0,1-.22-.39l2.6-1.49.1,0-.47-2.54-2.51,1.44a.22.22,0,0,1-.22-.39l2.6-1.49.05,0-.53-2.83-2.5,1.43a.22.22,0,0,1-.22-.39l2.6-1.49,0,0-.51-2.77-2.54,1.45a.22.22,0,0,1-.22-.39l2.6-1.49.08,0-.45-2.4-2.54,1.45a.22.22,0,0,1-.22-.39l2.6-1.49.08,0-.44-2.4L283.21,108a.22.22,0,0,1-.22-.39l2.6-1.49.08,0-.49-2.64-2.51,1.44a.22.22,0,0,1-.22-.39L285,103l0,0-.23-1.23-5.51,3.42s3.92,21.81,4,21.85c2.29,1.19,6.45,1.33,6.45,1.33Z" fill="#68e1fd" class="target-color"/><path d="M282.43,104.51a.22.22,0,0,0,.22.39l2.51-1.44-.09-.46,0,0Z" fill="#ca4300"/><path d="M283,107.62a.22.22,0,0,0,.22.39l2.54-1.45-.08-.45-.08,0Z" fill="#ca4300"/><path d="M283.51,110.47a.22.22,0,0,0,.22.39l2.54-1.45-.08-.45-.08,0Z" fill="#ca4300"/><path d="M284,113.32a.22.22,0,0,0,.22.39l2.54-1.45-.08-.45-.08,0Z" fill="#ca4300"/><path d="M284.68,116.53a.22.22,0,0,0,.22.39l2.5-1.43-.09-.46,0,0Z" fill="#ca4300"/><path d="M285.28,119.83a.22.22,0,0,0,.22.39l2.51-1.44-.09-.46-.05,0Z" fill="#ca4300"/><path d="M288.39,121.36l-2.6,1.49a.22.22,0,0,0,.22.39l2.55-1.46-.08-.45Z" fill="#ca4300"/><path d="M286.4,126a.22.22,0,0,0,.22.39l2.54-1.45-.08-.45-.08,0Z" fill="#ca4300"/><path d="M300.69,108.39s.14.73,1.24.86,1.48-.3,1.48-.3l-.36-5.47Z" fill="#ffd8bd"/><path d="M303.06,103.48l-1.1,2.28a1,1,0,0,0,1.26.18Z" fill="#653200"/><path d="M294.46,103.31s.25.7,1.36.65,1.41-.53,1.41-.53L296,98.08Z" fill="#ffd8bd"/><path d="M296,98.08l-.72,2.43a1,1,0,0,0,1.27,0Z" fill="#653200"/><path d="M292.52,128.38c-6.5,0-11.83-1.64-12.32-3.73.32,2.5,2.54,19.65,2.63,19.74s1.13,4.84,9.69,4.83c7.28,0,9.36-3.66,9.36-3.66l3-20.88C304.28,126.76,299,128.38,292.52,128.38Z" fill="#173743"/><path d="M254.61,80.33c-.09.17-.52,1.81-.87,1.47s-2.16.44-2.16.44l-5.06-6.44.67-2.1h4.56" fill="#68e1fd" class="target-color"/><path d="M230.15,52.59l-.48-1.67L224.35,48V38.95c0-.18,5.15,3,5.15,3l.24-.51a12.17,12.17,0,0,1,1.56-3.92l-3.75-6.92L232.32,27l3.56,7.14,0,0a8.1,8.1,0,0,1,3.93.07V27.38l6.81,3.78v7.16a30.13,30.13,0,0,1,3.64,4.19l4.11-2.62L259,48.71l-3.67,2.92.31,1.48a40.45,40.45,0,0,1,1.14,4.77l5.46,3v9l-5.2-3.1a11.7,11.7,0,0,1-1.68,4.63l3.9,6.62-4.94,3.74L250.87,75h-4.32V81.8l-6.5-4V71.15a26.85,26.85,0,0,1-3.92-4.86L232.23,69l-4.72-9,3.92-2.89L231,55.71C230.69,54.66,230.4,53.62,230.15,52.59Z" fill="#68e1fd" class="target-color"/><polyline points="217.81 42.72 223.83 39.08 225.33 41.31 223 46.18" fill="#68e1fd" class="target-color"/><polyline points="225.68 72.74 230.14 70.89 230.14 68.19" fill="#68e1fd" class="target-color"/><polygon points="240.01 85.57 246.56 81.8 244.9 76.85 239.01 78.58 240.01 85.57" fill="#68e1fd" class="target-color"/><polygon points="232.32 27.01 225.77 30.78 229.37 37.94 233.29 38.01 234.2 30.78 232.32 27.01" fill="#68e1fd" class="target-color"/><ellipse cx="236.33" cy="58.24" rx="2.95" ry="5.08" transform="translate(-4.93 90.47) rotate(-21.45)" fill="#68e1fd" class="target-color"/><polygon points="246.65 31.16 240.1 34.93 233.29 31.15 239.84 27.38 246.65 31.16" fill="#68e1fd" class="target-color"/><polygon points="247.84 43.66 254.39 39.88 259.02 48.71 252.48 52.48 247.84 43.66" fill="#68e1fd" class="target-color"/><polygon points="259.28 78.06 252.74 81.84 247.8 85.57 254.34 81.8 259.28 78.06" fill="#68e1fd" class="target-color"/><path d="M254.61,80.33c-.09.17-.52,1.81-.87,1.47s-2.16.44-2.16.44l-5.06-6.44.67-2.1h4.56" fill="#053855" opacity="0.44"/><path d="M230.15,52.59l-.48-1.67L224.35,48V38.95c0-.18,5.15,3,5.15,3l.24-.51a12.17,12.17,0,0,1,1.56-3.92l-3.75-6.92L232.32,27l3.56,7.14,0,0a8.1,8.1,0,0,1,3.93.07V27.38l6.81,3.78v7.16a30.13,30.13,0,0,1,3.64,4.19l4.11-2.62L259,48.71l-3.67,2.92.31,1.48a40.45,40.45,0,0,1,1.14,4.77l5.46,3v9l-5.2-3.1a11.7,11.7,0,0,1-1.68,4.63l3.9,6.62-4.94,3.74L250.87,75h-4.32V81.8l-6.5-4V71.15a26.85,26.85,0,0,1-3.92-4.86L232.23,69l-4.72-9,3.92-2.89L231,55.71C230.69,54.66,230.4,53.62,230.15,52.59Z" fill="#68e1fd" class="target-color"/><polyline points="217.81 42.72 223.83 39.08 225.33 41.31 223 46.18" fill="#053855" opacity="0.44"/><polyline points="225.68 72.74 230.14 70.89 230.14 68.19" fill="#68e1fd" class="target-color"/><polygon points="240.01 85.57 246.56 81.8 244.9 76.85 239.01 78.58 240.01 85.57" fill="#68e1fd" class="target-color"/><polygon points="232.32 27.01 225.77 30.78 229.37 37.94 233.29 38.01 234.2 30.78 232.32 27.01" fill="#68e1fd" class="target-color"/><ellipse cx="236.33" cy="58.24" rx="2.95" ry="5.08" transform="translate(-4.93 90.47) rotate(-21.45)" fill="#68e1fd" class="target-color"/><polygon points="247.84 43.66 254.39 39.88 259.02 48.71 252.48 52.48 247.84 43.66" fill="#68e1fd" class="target-color"/><polygon points="259.28 78.06 252.74 81.84 247.8 85.57 254.34 81.8 259.28 78.06" fill="#68e1fd" class="target-color"/><path d="M230.15,52.59l-.48-1.67L224.35,48V38.95c0-.18,5.15,3,5.15,3l.24-.51a12.17,12.17,0,0,1,1.56-3.92l-3.75-6.92L232.32,27l3.56,7.14,0,0a8.1,8.1,0,0,1,3.93.07V27.38l6.81,3.78v7.16a30.13,30.13,0,0,1,3.64,4.19l4.11-2.62L259,48.71l-3.67,2.92.31,1.48a40.45,40.45,0,0,1,1.14,4.77l5.46,3v9l-5.2-3.1a11.7,11.7,0,0,1-1.68,4.63l3.9,6.62-4.94,3.74L250.87,75h-4.32V81.8l-6.5-4V71.15a26.85,26.85,0,0,1-3.92-4.86L232.23,69l-4.72-9,3.92-2.89L231,55.71C230.69,54.66,230.4,53.62,230.15,52.59Z" fill="#053855" opacity="0.44"/><polyline points="225.68 72.74 230.14 70.89 230.14 68.19" fill="#053855" opacity="0.1"/><polygon points="240.01 85.57 246.56 81.8 244.9 76.85 239.01 78.58 240.01 85.57" fill="#053855" opacity="0.1"/><ellipse cx="236.33" cy="58.24" rx="2.95" ry="5.08" transform="translate(-4.93 90.47) rotate(-21.45)" fill="#053855" opacity="0.1"/><polygon points="247.84 43.66 254.39 39.88 259.02 48.71 252.48 52.48 247.84 43.66" fill="#053855" opacity="0.1"/><polygon points="259.28 78.06 252.74 81.84 247.8 85.57 254.34 81.8 259.28 78.06" fill="#053855" opacity="0.1"/><polyline points="225.68 72.74 230.14 70.89 230.14 68.19" fill="#053855" opacity="0.1"/><polygon points="240.01 85.57 246.56 81.8 244.9 76.85 239.01 78.58 240.01 85.57" fill="#053855" opacity="0.44"/><path d="M223.61,56.36l-.48-1.67-5.32-2.9V42.72c0-.18,5.15,3,5.15,3l.24-.51a12.17,12.17,0,0,1,1.56-3.92L221,34.4l4.76-3.62,3.56,7.14,0,0a8.1,8.1,0,0,1,3.93.07V31.15l6.81,3.78v7.16a30.13,30.13,0,0,1,3.64,4.19l4.11-2.62,4.64,8.82-3.67,2.92.31,1.48a40.45,40.45,0,0,1,1.14,4.77l5.46,3v9l-5.2-3.1a11.7,11.7,0,0,1-1.68,4.63l3.9,6.62-4.94,3.74-3.47-6.81H240v6.81l-6.5-4V74.92a26.85,26.85,0,0,1-3.92-4.86l-3.91,2.67-4.72-9,3.92-2.89-.39-1.35C224.15,58.43,223.85,57.39,223.61,56.36Z" fill="#68e1fd" class="target-color"/><ellipse cx="236.33" cy="58.24" rx="2.95" ry="5.08" transform="translate(-4.93 90.47) rotate(-21.45)" fill="#053855" opacity="0.44"/><polygon points="259.28 78.06 252.74 81.84 247.8 85.57 254.34 81.8 259.28 78.06" fill="#053855" opacity="0.44"/><polygon points="246.65 31.16 240.1 34.93 233.29 31.15 239.84 27.38 246.65 31.16" fill="#68e1fd" class="target-color"/><polygon points="246.65 31.13 240.12 34.93 233.29 31.18 239.82 27.38 246.65 31.13" fill="#053855" opacity="0.44"/><polygon points="262.26 60.89 255.72 64.66 255.72 73.69 262.26 69.92 262.26 60.89" fill="#68e1fd" class="target-color"/><polygon points="262.26 60.89 255.72 64.66 255.72 73.69 262.26 69.92 262.26 60.89" fill="#053855" opacity="0.44"/><path d="M293.84,77c-.07.14-.41,1.41-.68,1.15s-1.68.34-1.68.34l-3.95-5,.52-1.64h3.56" fill="#68e1fd" class="target-color"/><path d="M274.76,55.35l-.37-1.3-4.15-2.26V44.71c0-.14,4,2.36,4,2.36l.19-.39a9.49,9.49,0,0,1,1.22-3.06l-2.92-5.4,3.71-2.82L279.23,41l0,0a6.32,6.32,0,0,1,3.06.05V35.68l5.31,2.95v5.59a23.51,23.51,0,0,1,2.84,3.27l3.2-2,3.62,6.88-2.87,2.28.24,1.16a31.56,31.56,0,0,1,.89,3.72l4.26,2.35v7l-4.06-2.42a9.13,9.13,0,0,1-1.31,3.61l3,5.16-3.85,2.92-2.71-5.31h-3.37v5.31l-5.07-3.09V69.83A21,21,0,0,1,279.43,66l-3,2.08-3.68-7,3.05-2.26-.3-1.06C275.18,57,275,56.15,274.76,55.35Z" fill="#68e1fd" class="target-color"/><polyline points="265.13 47.65 269.83 44.81 271 46.55 269.18 50.35" fill="#68e1fd" class="target-color"/><polyline points="271.28 71.07 274.75 69.63 274.75 67.52" fill="#68e1fd" class="target-color"/><polygon points="282.45 81.08 287.56 78.14 286.26 74.28 281.67 75.63 282.45 81.08" fill="#68e1fd" class="target-color"/><polygon points="276.45 35.39 271.35 38.34 274.15 43.92 277.21 43.98 277.92 38.34 276.45 35.39" fill="#68e1fd" class="target-color"/><ellipse cx="279.58" cy="59.76" rx="2.3" ry="3.96" transform="translate(-2.49 106.39) rotate(-21.45)" fill="#68e1fd" class="target-color"/><polygon points="287.63 38.63 282.52 41.58 277.21 38.63 282.32 35.68 287.63 38.63" fill="#68e1fd" class="target-color"/><polygon points="288.56 48.38 293.67 45.44 297.29 52.32 292.18 55.27 288.56 48.38" fill="#68e1fd" class="target-color"/><polygon points="297.49 75.22 292.38 78.17 288.53 81.08 293.63 78.14 297.49 75.22" fill="#68e1fd" class="target-color"/><path d="M293.84,77c-.07.14-.41,1.41-.68,1.15s-1.68.34-1.68.34l-3.95-5,.52-1.64h3.56" fill="#053855" opacity="0.44"/><path d="M274.76,55.35l-.37-1.3-4.15-2.26V44.71c0-.14,4,2.36,4,2.36l.19-.39a9.49,9.49,0,0,1,1.22-3.06l-2.92-5.4,3.71-2.82L279.23,41l0,0a6.32,6.32,0,0,1,3.06.05V35.68l5.31,2.95v5.59a23.51,23.51,0,0,1,2.84,3.27l3.2-2,3.62,6.88-2.87,2.28.24,1.16a31.56,31.56,0,0,1,.89,3.72l4.26,2.35v7l-4.06-2.42a9.13,9.13,0,0,1-1.31,3.61l3,5.16-3.85,2.92-2.71-5.31h-3.37v5.31l-5.07-3.09V69.83A21,21,0,0,1,279.43,66l-3,2.08-3.68-7,3.05-2.26-.3-1.06C275.18,57,275,56.15,274.76,55.35Z" fill="#68e1fd" class="target-color"/><polyline points="265.13 47.65 269.83 44.81 271 46.55 269.18 50.35" fill="#053855" opacity="0.44"/><polyline points="271.28 71.07 274.75 69.63 274.75 67.52" fill="#68e1fd" class="target-color"/><polygon points="282.45 81.08 287.56 78.14 286.26 74.28 281.67 75.63 282.45 81.08" fill="#68e1fd" class="target-color"/><polygon points="276.45 35.39 271.35 38.34 274.15 43.92 277.21 43.98 277.92 38.34 276.45 35.39" fill="#68e1fd" class="target-color"/><ellipse cx="279.58" cy="59.76" rx="2.3" ry="3.96" transform="translate(-2.49 106.39) rotate(-21.45)" fill="#68e1fd" class="target-color"/><polygon points="288.56 48.38 293.67 45.44 297.29 52.32 292.18 55.27 288.56 48.38" fill="#68e1fd" class="target-color"/><polygon points="297.49 75.22 292.38 78.17 288.53 81.08 293.63 78.14 297.49 75.22" fill="#68e1fd" class="target-color"/><path d="M274.76,55.35l-.37-1.3-4.15-2.26V44.71c0-.14,4,2.36,4,2.36l.19-.39a9.49,9.49,0,0,1,1.22-3.06l-2.92-5.4,3.71-2.82L279.23,41l0,0a6.32,6.32,0,0,1,3.06.05V35.68l5.31,2.95v5.59a23.51,23.51,0,0,1,2.84,3.27l3.2-2,3.62,6.88-2.87,2.28.24,1.16a31.56,31.56,0,0,1,.89,3.72l4.26,2.35v7l-4.06-2.42a9.13,9.13,0,0,1-1.31,3.61l3,5.16-3.85,2.92-2.71-5.31h-3.37v5.31l-5.07-3.09V69.83A21,21,0,0,1,279.43,66l-3,2.08-3.68-7,3.05-2.26-.3-1.06C275.18,57,275,56.15,274.76,55.35Z" fill="#053855" opacity="0.44"/><polyline points="271.28 71.07 274.75 69.63 274.75 67.52" fill="#053855" opacity="0.1"/><polygon points="282.45 81.08 287.56 78.14 286.26 74.28 281.67 75.63 282.45 81.08" fill="#053855" opacity="0.1"/><ellipse cx="279.58" cy="59.76" rx="2.3" ry="3.96" transform="translate(-2.49 106.39) rotate(-21.45)" fill="#053855" opacity="0.1"/><polygon points="288.56 48.38 293.67 45.44 297.29 52.32 292.18 55.27 288.56 48.38" fill="#053855" opacity="0.1"/><polygon points="297.49 75.22 292.38 78.17 288.53 81.08 293.63 78.14 297.49 75.22" fill="#053855" opacity="0.1"/><polyline points="271.28 71.07 274.75 69.63 274.75 67.52" fill="#053855" opacity="0.1"/><polygon points="282.45 81.08 287.56 78.14 286.26 74.28 281.67 75.63 282.45 81.08" fill="#053855" opacity="0.44"/><path d="M269.66,58.3l-.37-1.3-4.15-2.26V47.65c0-.14,4,2.36,4,2.36l.19-.39a9.49,9.49,0,0,1,1.22-3.06l-2.92-5.4,3.71-2.82,2.78,5.57,0,0a6.32,6.32,0,0,1,3.06.05V38.63l5.31,2.95v5.59a23.51,23.51,0,0,1,2.84,3.27l3.2-2,3.62,6.88-2.87,2.28.24,1.16a31.56,31.56,0,0,1,.89,3.72l4.26,2.35v7l-4.06-2.42A9.13,9.13,0,0,1,289.34,73l3,5.16-3.85,2.92-2.71-5.31h-3.37v5.31L277.39,78V72.77A21,21,0,0,1,274.33,69l-3,2.08-3.68-7,3.05-2.26-.3-1.06C270.08,59.91,269.85,59.1,269.66,58.3Z" fill="#68e1fd" class="target-color"/><ellipse cx="279.58" cy="59.76" rx="2.3" ry="3.96" transform="translate(-2.49 106.39) rotate(-21.45)" fill="#053855" opacity="0.44"/><polygon points="297.49 75.22 292.38 78.17 288.53 81.08 293.63 78.14 297.49 75.22" fill="#053855" opacity="0.44"/><polygon points="287.63 38.63 282.52 41.58 277.21 38.63 282.32 35.68 287.63 38.63" fill="#68e1fd" class="target-color"/><polygon points="287.63 38.61 282.53 41.58 277.21 38.65 282.31 35.69 287.63 38.61" fill="#053855" opacity="0.44"/><polygon points="299.81 61.82 294.71 64.77 294.71 71.82 299.81 68.87 299.81 61.82" fill="#68e1fd" class="target-color"/><polygon points="299.81 61.82 294.71 64.77 294.71 71.82 299.81 68.87 299.81 61.82" fill="#053855" opacity="0.44"/><path d="M203.29,201.62a4.64,4.64,0,0,1-1.74,2.25,8.46,8.46,0,0,1-3.16,1.47,10.39,10.39,0,0,1-3.64.22,9.2,9.2,0,0,1-2.92-.84l-.4-.21a5.11,5.11,0,0,1-2.11-2,3,3,0,0,1-.24-2.36,4.68,4.68,0,0,1,1.74-2.26,8.32,8.32,0,0,1,3.16-1.46,10.23,10.23,0,0,1,3.63-.21,9,9,0,0,1,2.89.82l.43.22a5.19,5.19,0,0,1,2.13,2A3,3,0,0,1,203.29,201.62Zm-4.35.8a2.44,2.44,0,0,0,1.2-1.88,2.07,2.07,0,0,0-1.28-1.66l-.25-.13a4.64,4.64,0,0,0-2.48-.44,5.11,5.11,0,0,0-2.69,1.07,2.44,2.44,0,0,0-1.2,1.88c0,.65.44,1.2,1.28,1.66l.24.12a4.68,4.68,0,0,0,2.48.44,5.11,5.11,0,0,0,2.69-1.06" fill="#9d5c38"/><polygon points="186.33 189.37 194.66 193.99 192.87 195.34 189.99 193.75 182.5 199.44 179.92 198 187.4 192.31 184.54 190.72 186.33 189.37" fill="#9d5c38"/><path d="M180.14,185.83l.45.23a4.55,4.55,0,0,1,2.42,2.57,3,3,0,0,1-.8,2.87L179.5,190a1.45,1.45,0,0,0,.08-1.28,2.33,2.33,0,0,0-1.11-1.1l-.2-.1a4.15,4.15,0,0,0-2.35-.36,5.33,5.33,0,0,0-2.62,1.08,2.57,2.57,0,0,0-1.23,1.85,1.76,1.76,0,0,0,1.11,1.55l.24.12a4.37,4.37,0,0,0,1.61.42,4.88,4.88,0,0,0,1.92-.25l2.72,1.51a9.09,9.09,0,0,1-4.22,1,8.84,8.84,0,0,1-3.79-.89l-.51-.27a5.11,5.11,0,0,1-2.13-2,2.69,2.69,0,0,1-.14-2.28,5.08,5.08,0,0,1,1.81-2.22,8.9,8.9,0,0,1,3.08-1.51,9.23,9.23,0,0,1,3.49-.26A8.83,8.83,0,0,1,180.14,185.83Z" fill="#9d5c38"/><path d="M233.33,161.91l23,12.8c-3.84,2.43-19.29,10.74-23,13.36l-23.75-15.2,3.91-9.51Z" opacity="0.32" fill="url(#linear-gradient-2)"/><polyline points="213.78 175.36 197.04 165.61 218.85 153.08 235.95 161.88" fill="#b3b3b3"/><path d="M218.11,156.13s-4.39,19.47-4.33,19.23,21.67-11.85,21.82-12.27,5.71-20.17,5.71-20.17Z" fill="#fff"/><ellipse cx="227.95" cy="160.56" rx="3.24" ry="1.44" transform="translate(-25.08 277.69) rotate(-60)" fill="#b3b3b3"/></svg>